<?xml version="1.0"?>
<svg xmlns="http://www.w3.org/2000/svg" width="500" height="200" version="1.0" id="ezcGraph"><defs><linearGradient id="Definition_LinearGradient_6_26_11_31_7eceff00_2a457900"><stop offset="0" style="stop-color: #7eceff; stop-opacity: 1.00;"/><stop offset="1" style="stop-color: #2a4579; stop-opacity: 1.00;"/></linearGradient><linearGradient xmlns:xlink="http://www.w3.org/1999/xlink" id="LinearGradient_6_26_11_31_7eceff00_2a457900" x1="6.1005" y1="26.1005" x2="11.8995" y2="31.8995" gradientUnits="userSpaceOnUse" xlink:href="#Definition_LinearGradient_6_26_11_31_7eceff00_2a457900"/><linearGradient id="Definition_LinearGradient_6_44_11_49_9ee9ff00_354e8000"><stop offset="0" style="stop-color: #9ee9ff; stop-opacity: 1.00;"/><stop offset="1" style="stop-color: #354e80; stop-opacity: 1.00;"/></linearGradient><linearGradient xmlns:xlink="http://www.w3.org/1999/xlink" id="LinearGradient_6_44_11_49_9ee9ff00_354e8000" x1="6.1005" y1="44.1005" x2="11.8995" y2="49.8995" gradientUnits="userSpaceOnUse" xlink:href="#Definition_LinearGradient_6_44_11_49_9ee9ff00_354e8000"/><linearGradient id="Definition_LinearGradient_150_74_171_74_ffffffbf_0000007f"><stop offset="0" style="stop-color: #ffffff; stop-opacity: 0.25;"/><stop offset="1" style="stop-color: #000000; stop-opacity: 0.50;"/></linearGradient><linearGradient xmlns:xlink="http://www.w3.org/1999/xlink" id="LinearGradient_150_74_171_74_ffffffbf_0000007f" x1="150.5054" y1="74.2304" x2="171.8721" y2="74.2304" gradientUnits="userSpaceOnUse" xlink:href="#Definition_LinearGradient_150_74_171_74_ffffffbf_0000007f"/><linearGradient id="Definition_LinearGradient_173_171_194_171_ffffffbf_0000007f"><stop offset="0" style="stop-color: #ffffff; stop-opacity: 0.25;"/><stop offset="1" style="stop-color: #000000; stop-opacity: 0.50;"/></linearGradient><linearGradient xmlns:xlink="http://www.w3.org/1999/xlink" id="LinearGradient_173_171_194_171_ffffffbf_0000007f" x1="173.4612" y1="171.5168" x2="194.8279" y2="171.5168" gradientUnits="userSpaceOnUse" xlink:href="#Definition_LinearGradient_173_171_194_171_ffffffbf_0000007f"/><linearGradient id="Definition_LinearGradient_201_91_222_91_ffffffbf_0000007f"><stop offset="0" style="stop-color: #ffffff; stop-opacity: 0.25;"/><stop offset="1" style="stop-color: #000000; stop-opacity: 0.50;"/></linearGradient><linearGradient xmlns:xlink="http://www.w3.org/1999/xlink" id="LinearGradient_201_91_222_91_ffffffbf_0000007f" x1="201.4388" y1="91.4240" x2="222.8054" y2="91.4240" gradientUnits="userSpaceOnUse" xlink:href="#Definition_LinearGradient_201_91_222_91_ffffffbf_0000007f"/><linearGradient id="Definition_LinearGradient_224_172_245_172_ffffffbf_0000007f"><stop offset="0" style="stop-color: #ffffff; stop-opacity: 0.25;"/><stop offset="1" style="stop-color: #000000; stop-opacity: 0.50;"/></linearGradient><linearGradient xmlns:xlink="http://www.w3.org/1999/xlink" id="LinearGradient_224_172_245_172_ffffffbf_0000007f" x1="224.3946" y1="172.0352" x2="245.7612" y2="172.0352" gradientUnits="userSpaceOnUse" xlink:href="#Definition_LinearGradient_224_172_245_172_ffffffbf_0000007f"/><linearGradient id="Definition_LinearGradient_252_87_273_87_ffffffbf_0000007f"><stop offset="0" style="stop-color: #ffffff; stop-opacity: 0.25;"/><stop offset="1" style="stop-color: #000000; stop-opacity: 0.50;"/></linearGradient><linearGradient xmlns:xlink="http://www.w3.org/1999/xlink" id="LinearGradient_252_87_273_87_ffffffbf_0000007f" x1="252.3721" y1="87.1904" x2="273.7388" y2="87.1904" gradientUnits="userSpaceOnUse" xlink:href="#Definition_LinearGradient_252_87_273_87_ffffffbf_0000007f"/><linearGradient id="Definition_LinearGradient_275_171_296_171_ffffffbf_0000007f"><stop offset="0" style="stop-color: #ffffff; stop-opacity: 0.25;"/><stop offset="1" style="stop-color: #000000; stop-opacity: 0.50;"/></linearGradient><linearGradient xmlns:xlink="http://www.w3.org/1999/xlink" id="LinearGradient_275_171_296_171_ffffffbf_0000007f" x1="275.3279" y1="171.9488" x2="296.6946" y2="171.9488" gradientUnits="userSpaceOnUse" xlink:href="#Definition_LinearGradient_275_171_296_171_ffffffbf_0000007f"/><linearGradient id="Definition_LinearGradient_303_65_324_65_ffffffbf_0000007f"><stop offset="0" style="stop-color: #ffffff; stop-opacity: 0.25;"/><stop offset="1" style="stop-color: #000000; stop-opacity: 0.50;"/></linearGradient><linearGradient xmlns:xlink="http://www.w3.org/1999/xlink" id="LinearGradient_303_65_324_65_ffffffbf_0000007f" x1="303.3054" y1="65.1584" x2="324.6721" y2="65.1584" gradientUnits="userSpaceOnUse" xlink:href="#Definition_LinearGradient_303_65_324_65_ffffffbf_0000007f"/><linearGradient id="Definition_LinearGradient_326_171_347_171_ffffffbf_0000007f"><stop offset="0" style="stop-color: #ffffff; stop-opacity: 0.25;"/><stop offset="1" style="stop-color: #000000; stop-opacity: 0.50;"/></linearGradient><linearGradient xmlns:xlink="http://www.w3.org/1999/xlink" id="LinearGradient_326_171_347_171_ffffffbf_0000007f" x1="326.2612" y1="171.2576" x2="347.6279" y2="171.2576" gradientUnits="userSpaceOnUse" xlink:href="#Definition_LinearGradient_326_171_347_171_ffffffbf_0000007f"/><linearGradient id="Definition_LinearGradient_354_65_375_65_ffffffbf_0000007f"><stop offset="0" style="stop-color: #ffffff; stop-opacity: 0.25;"/><stop offset="1" style="stop-color: #000000; stop-opacity: 0.50;"/></linearGradient><linearGradient xmlns:xlink="http://www.w3.org/1999/xlink" id="LinearGradient_354_65_375_65_ffffffbf_0000007f" x1="354.2388" y1="65.1584" x2="375.6054" y2="65.1584" gradientUnits="userSpaceOnUse" xlink:href="#Definition_LinearGradient_354_65_375_65_ffffffbf_0000007f"/><linearGradient id="Definition_LinearGradient_377_171_398_171_ffffffbf_0000007f"><stop offset="0" style="stop-color: #ffffff; stop-opacity: 0.25;"/><stop offset="1" style="stop-color: #000000; stop-opacity: 0.50;"/></linearGradient><linearGradient xmlns:xlink="http://www.w3.org/1999/xlink" id="LinearGradient_377_171_398_171_ffffffbf_0000007f" x1="377.1946" y1="171.8624" x2="398.5612" y2="171.8624" gradientUnits="userSpaceOnUse" xlink:href="#Definition_LinearGradient_377_171_398_171_ffffffbf_0000007f"/><linearGradient id="Definition_LinearGradient_405_108_426_108_ffffffbf_0000007f"><stop offset="0" style="stop-color: #ffffff; stop-opacity: 0.25;"/><stop offset="1" style="stop-color: #000000; stop-opacity: 0.50;"/></linearGradient><linearGradient xmlns:xlink="http://www.w3.org/1999/xlink" id="LinearGradient_405_108_426_108_ffffffbf_0000007f" x1="405.1721" y1="108.1856" x2="426.5388" y2="108.1856" gradientUnits="userSpaceOnUse" xlink:href="#Definition_LinearGradient_405_108_426_108_ffffffbf_0000007f"/><linearGradient id="Definition_LinearGradient_428_172_449_172_ffffffbf_0000007f"><stop offset="0" style="stop-color: #ffffff; stop-opacity: 0.25;"/><stop offset="1" style="stop-color: #000000; stop-opacity: 0.50;"/></linearGradient><linearGradient xmlns:xlink="http://www.w3.org/1999/xlink" id="LinearGradient_428_172_449_172_ffffffbf_0000007f" x1="428.1279" y1="172.6400" x2="449.4946" y2="172.6400" gradientUnits="userSpaceOnUse" xlink:href="#Definition_LinearGradient_428_172_449_172_ffffffbf_0000007f"/></defs><g id="ezcGraphChart" color-rendering="optimizeQuality" shape-rendering="geometricPrecision" text-rendering="optimizeLegibility"><path d=" M 0.0000,200.0000 L 0.0000,0.0000 L 500.0000,0.0000 L 500.0000,200.0000 L 0.0000,200.0000 z " style="fill: #ffffff; fill-opacity: 1.00; stroke: none;" id="ezcGraphPolygon_1"/><path d=" M 0.0000,20.0000 L 0.0000,0.0000 L 500.0000,0.0000 L 500.0000,20.0000 L 0.0000,20.0000 z " style="fill: #000000; fill-opacity: 0.00; stroke: none;" id="ezcGraphPolygon_2"/><path d=" M 0.0000,200.0000 L 0.0000,20.0000 L 100.0000,20.0000 L 100.0000,200.0000 L 0.0000,200.0000 z " style="fill: #000000; fill-opacity: 0.00; stroke: none;" id="ezcGraphPolygon_4"/><ellipse cx="9.0000" cy="29.0000" rx="7.0000" ry="7.0000" style="fill: #5489f2; fill-opacity: 1.00; stroke: none;" id="ezcGraphCircle_5"/><ellipse cx="9.0000" cy="29.0000" rx="6.3000" ry="6.3000" style="fill: url(#LinearGradient_6_26_11_31_7eceff00_2a457900); stroke: none;" id="ezcGraphCircle_6"/><ellipse cx="9.0000" cy="47.0000" rx="7.0000" ry="7.0000" style="fill: #699bff; fill-opacity: 1.00; stroke: none;" id="ezcGraphCircle_8"/><ellipse cx="9.0000" cy="47.0000" rx="6.3000" ry="6.3000" style="fill: url(#LinearGradient_6_44_11_49_9ee9ff00_354e8000); stroke: none;" id="ezcGraphCircle_9"/><path d=" M 100.0000,183.8000 L 118.0000,165.8000 L 500.0000,165.8000 L 482.0000,183.8000 L 100.0000,183.8000 z " style="fill: #2e3436; fill-opacity: 0.20; stroke: none;" id="ezcGraphPolygon_11"/><path d=" M 118.0000,165.8000 L 500.0000,165.8000" style="fill: none; stroke: #2e3436; stroke-width: 1; stroke-opacity: 1.00; stroke-linecap: round; stroke-linejoin: round;" id="ezcGraphLine_12"/><path d=" M 492.0000,161.8000 L 500.0000,165.8000 L 492.0000,169.8000 L 492.0000,161.8000 z " style="fill: #2e3436; fill-opacity: 1.00; stroke: none;" id="ezcGraphPolygon_13"/><path d=" M 138.2000,200.0000 L 156.2000,182.0000 L 156.2000,20.0000 L 138.2000,38.0000 L 138.2000,200.0000 z " style="fill: #2e3436; fill-opacity: 0.20; stroke: none;" id="ezcGraphPolygon_14"/><path d=" M 156.2000,182.0000 L 156.2000,20.0000" style="fill: none; stroke: #2e3436; stroke-width: 1; stroke-opacity: 1.00; stroke-linecap: round; stroke-linejoin: round;" id="ezcGraphLine_15"/><path d=" M 154.2000,24.0000 L 156.2000,20.0000 L 158.2000,24.0000 L 154.2000,24.0000 z " style="fill: #2e3436; fill-opacity: 1.00; stroke: none;" id="ezcGraphPolygon_16"/><path d=" M 205.8600,165.8000 L 205.8600,36.2000" style="fill: none; stroke: #888888; stroke-width: 1; stroke-opacity: 1.00; stroke-linecap: round; stroke-linejoin: round;" id="ezcGraphLine_18"/><path d=" M 189.1333,181.1000 L 207.1333,163.1000 L 207.1333,168.5000 L 189.1333,186.5000 L 189.1333,181.1000 z " style="fill: #2e3436; fill-opacity: 0.20; stroke: none;" id="ezcGraphPolygon_19"/><path d=" M 206.6333,164.3071 L 206.6333,168.2929 L 189.6333,185.2929 L 189.6333,181.3071 L 206.6333,164.3071 z " style="fill: none; stroke: #2e3436; stroke-width: 1; stroke-opacity: 1.00; stroke-linecap: round; stroke-linejoin: round;" id="ezcGraphPolygon_20"/><path d=" M 259.3400,165.8000 L 259.3400,36.2000" style="fill: none; stroke: #888888; stroke-width: 1; stroke-opacity: 1.00; stroke-linecap: round; stroke-linejoin: round;" id="ezcGraphLine_22"/><path d=" M 240.0667,181.1000 L 258.0667,163.1000 L 258.0667,168.5000 L 240.0667,186.5000 L 240.0667,181.1000 z " style="fill: #2e3436; fill-opacity: 0.20; stroke: none;" id="ezcGraphPolygon_23"/><path d=" M 257.5667,164.3071 L 257.5667,168.2929 L 240.5667,185.2929 L 240.5667,181.3071 L 257.5667,164.3071 z " style="fill: none; stroke: #2e3436; stroke-width: 1; stroke-opacity: 1.00; stroke-linecap: round; stroke-linejoin: round;" id="ezcGraphPolygon_24"/><path d=" M 309.0000,165.8000 L 309.0000,36.2000" style="fill: none; stroke: #888888; stroke-width: 1; stroke-opacity: 1.00; stroke-linecap: round; stroke-linejoin: round;" id="ezcGraphLine_26"/><path d=" M 291.0000,181.1000 L 309.0000,163.1000 L 309.0000,168.5000 L 291.0000,186.5000 L 291.0000,181.1000 z " style="fill: #2e3436; fill-opacity: 0.20; stroke: none;" id="ezcGraphPolygon_27"/><path d=" M 308.5000,164.3071 L 308.5000,168.2929 L 291.5000,185.2929 L 291.5000,181.3071 L 308.5000,164.3071 z " style="fill: none; stroke: #2e3436; stroke-width: 1; stroke-opacity: 1.00; stroke-linecap: round; stroke-linejoin: round;" id="ezcGraphPolygon_28"/><path d=" M 358.6600,165.8000 L 358.6600,36.2000" style="fill: none; stroke: #888888; stroke-width: 1; stroke-opacity: 1.00; stroke-linecap: round; stroke-linejoin: round;" id="ezcGraphLine_30"/><path d=" M 341.9333,181.1000 L 359.9333,163.1000 L 359.9333,168.5000 L 341.9333,186.5000 L 341.9333,181.1000 z " style="fill: #2e3436; fill-opacity: 0.20; stroke: none;" id="ezcGraphPolygon_31"/><path d=" M 359.4333,164.3071 L 359.4333,168.2929 L 342.4333,185.2929 L 342.4333,181.3071 L 359.4333,164.3071 z " style="fill: none; stroke: #2e3436; stroke-width: 1; stroke-opacity: 1.00; stroke-linecap: round; stroke-linejoin: round;" id="ezcGraphPolygon_32"/><path d=" M 412.1400,165.8000 L 412.1400,36.2000" style="fill: none; stroke: #888888; stroke-width: 1; stroke-opacity: 1.00; stroke-linecap: round; stroke-linejoin: round;" id="ezcGraphLine_34"/><path d=" M 392.8667,181.1000 L 410.8667,163.1000 L 410.8667,168.5000 L 392.8667,186.5000 L 392.8667,181.1000 z " style="fill: #2e3436; fill-opacity: 0.20; stroke: none;" id="ezcGraphPolygon_35"/><path d=" M 410.3667,164.3071 L 410.3667,168.2929 L 393.3667,185.2929 L 393.3667,181.3071 L 410.3667,164.3071 z " style="fill: none; stroke: #2e3436; stroke-width: 1; stroke-opacity: 1.00; stroke-linecap: round; stroke-linejoin: round;" id="ezcGraphPolygon_36"/><path d=" M 461.8000,165.8000 L 461.8000,36.2000" style="fill: none; stroke: #888888; stroke-width: 1; stroke-opacity: 1.00; stroke-linecap: round; stroke-linejoin: round;" id="ezcGraphLine_38"/><path d=" M 443.8000,181.1000 L 461.8000,163.1000 L 461.8000,168.5000 L 443.8000,186.5000 L 443.8000,181.1000 z " style="fill: #2e3436; fill-opacity: 0.20; stroke: none;" id="ezcGraphPolygon_39"/><path d=" M 461.3000,164.3071 L 461.3000,168.2929 L 444.3000,185.2929 L 444.3000,181.3071 L 461.3000,164.3071 z " style="fill: none; stroke: #2e3436; stroke-width: 1; stroke-opacity: 1.00; stroke-linecap: round; stroke-linejoin: round;" id="ezcGraphPolygon_40"/><path d=" M 461.8000,160.9400 L 156.2000,160.9400" style="fill: none; stroke: #000000; stroke-width: 1; stroke-opacity: 0.00; stroke-linecap: round; stroke-linejoin: round;" id="ezcGraphLine_42"/><path d=" M 138.2000,179.4800 L 156.2000,161.4800 L 157.1550,161.4800 L 139.1550,179.4800 L 138.2000,179.4800 z " style="fill: #2e3436; fill-opacity: 0.20; stroke: none;" id="ezcGraphPolygon_43"/><path d=" M 156.4071,161.9800 L 155.9479,161.9800 L 138.9479,178.9800 L 139.4071,178.9800 L 156.4071,161.9800 z " style="fill: none; stroke: #2e3436; stroke-width: 1; stroke-opacity: 1.00; stroke-linecap: round; stroke-linejoin: round;" id="ezcGraphPolygon_44"/><path d=" M 461.8000,157.7000 L 156.2000,157.7000" style="fill: none; stroke: #000000; stroke-width: 1; stroke-opacity: 0.00; stroke-linecap: round; stroke-linejoin: round;" id="ezcGraphLine_45"/><path d=" M 138.2000,175.1600 L 156.2000,157.1600 L 157.1550,157.1600 L 139.1550,175.1600 L 138.2000,175.1600 z " style="fill: #2e3436; fill-opacity: 0.20; stroke: none;" id="ezcGraphPolygon_46"/><path d=" M 156.4071,157.6600 L 155.9479,157.6600 L 138.9479,174.6600 L 139.4071,174.6600 L 156.4071,157.6600 z " style="fill: none; stroke: #2e3436; stroke-width: 1; stroke-opacity: 1.00; stroke-linecap: round; stroke-linejoin: round;" id="ezcGraphPolygon_47"/><path d=" M 461.8000,152.8400 L 156.2000,152.8400" style="fill: none; stroke: #000000; stroke-width: 1; stroke-opacity: 0.00; stroke-linecap: round; stroke-linejoin: round;" id="ezcGraphLine_48"/><path d=" M 138.2000,170.8400 L 156.2000,152.8400 L 157.1550,152.8400 L 139.1550,170.8400 L 138.2000,170.8400 z " style="fill: #2e3436; fill-opacity: 0.20; stroke: none;" id="ezcGraphPolygon_49"/><path d=" M 156.4071,153.3400 L 155.9479,153.3400 L 138.9479,170.3400 L 139.4071,170.3400 L 156.4071,153.3400 z " style="fill: none; stroke: #2e3436; stroke-width: 1; stroke-opacity: 1.00; stroke-linecap: round; stroke-linejoin: round;" id="ezcGraphPolygon_50"/><path d=" M 461.8000,147.9800 L 156.2000,147.9800" style="fill: none; stroke: #000000; stroke-width: 1; stroke-opacity: 0.00; stroke-linecap: round; stroke-linejoin: round;" id="ezcGraphLine_51"/><path d=" M 138.2000,166.5200 L 156.2000,148.5200 L 157.1550,148.5200 L 139.1550,166.5200 L 138.2000,166.5200 z " style="fill: #2e3436; fill-opacity: 0.20; stroke: none;" id="ezcGraphPolygon_52"/><path d=" M 156.4071,149.0200 L 155.9479,149.0200 L 138.9479,166.0200 L 139.4071,166.0200 L 156.4071,149.0200 z " style="fill: none; stroke: #2e3436; stroke-width: 1; stroke-opacity: 1.00; stroke-linecap: round; stroke-linejoin: round;" id="ezcGraphPolygon_53"/><path d=" M 461.8000,144.7400 L 156.2000,144.7400" style="fill: none; stroke: #888888; stroke-width: 1; stroke-opacity: 1.00; stroke-linecap: round; stroke-linejoin: round;" id="ezcGraphLine_54"/><path d=" M 138.2000,162.2000 L 156.2000,144.2000 L 159.0650,144.2000 L 141.0650,162.2000 L 138.2000,162.2000 z " style="fill: #2e3436; fill-opacity: 0.20; stroke: none;" id="ezcGraphPolygon_55"/><path d=" M 156.4071,144.7000 L 157.8579,144.7000 L 140.8579,161.7000 L 139.4071,161.7000 L 156.4071,144.7000 z " style="fill: none; stroke: #2e3436; stroke-width: 1; stroke-opacity: 1.00; stroke-linecap: round; stroke-linejoin: round;" id="ezcGraphPolygon_56"/><path d=" M 461.8000,139.8800 L 156.2000,139.8800" style="fill: none; stroke: #000000; stroke-width: 1; stroke-opacity: 0.00; stroke-linecap: round; stroke-linejoin: round;" id="ezcGraphLine_58"/><path d=" M 138.2000,157.8800 L 156.2000,139.8800 L 157.1550,139.8800 L 139.1550,157.8800 L 138.2000,157.8800 z " style="fill: #2e3436; fill-opacity: 0.20; stroke: none;" id="ezcGraphPolygon_59"/><path d=" M 156.4071,140.3800 L 155.9479,140.3800 L 138.9479,157.3800 L 139.4071,157.3800 L 156.4071,140.3800 z " style="fill: none; stroke: #2e3436; stroke-width: 1; stroke-opacity: 1.00; stroke-linecap: round; stroke-linejoin: round;" id="ezcGraphPolygon_60"/><path d=" M 461.8000,135.0200 L 156.2000,135.0200" style="fill: none; stroke: #000000; stroke-width: 1; stroke-opacity: 0.00; stroke-linecap: round; stroke-linejoin: round;" id="ezcGraphLine_61"/><path d=" M 138.2000,153.5600 L 156.2000,135.5600 L 157.1550,135.5600 L 139.1550,153.5600 L 138.2000,153.5600 z " style="fill: #2e3436; fill-opacity: 0.20; stroke: none;" id="ezcGraphPolygon_62"/><path d=" M 156.4071,136.0600 L 155.9479,136.0600 L 138.9479,153.0600 L 139.4071,153.0600 L 156.4071,136.0600 z " style="fill: none; stroke: #2e3436; stroke-width: 1; stroke-opacity: 1.00; stroke-linecap: round; stroke-linejoin: round;" id="ezcGraphPolygon_63"/><path d=" M 461.8000,131.7800 L 156.2000,131.7800" style="fill: none; stroke: #000000; stroke-width: 1; stroke-opacity: 0.00; stroke-linecap: round; stroke-linejoin: round;" id="ezcGraphLine_64"/><path d=" M 138.2000,149.2400 L 156.2000,131.2400 L 157.1550,131.2400 L 139.1550,149.2400 L 138.2000,149.2400 z " style="fill: #2e3436; fill-opacity: 0.20; stroke: none;" id="ezcGraphPolygon_65"/><path d=" M 156.4071,131.7400 L 155.9479,131.7400 L 138.9479,148.7400 L 139.4071,148.7400 L 156.4071,131.7400 z " style="fill: none; stroke: #2e3436; stroke-width: 1; stroke-opacity: 1.00; stroke-linecap: round; stroke-linejoin: round;" id="ezcGraphPolygon_66"/><path d=" M 461.8000,126.9200 L 156.2000,126.9200" style="fill: none; stroke: #000000; stroke-width: 1; stroke-opacity: 0.00; stroke-linecap: round; stroke-linejoin: round;" id="ezcGraphLine_67"/><path d=" M 138.2000,144.9200 L 156.2000,126.9200 L 157.1550,126.9200 L 139.1550,144.9200 L 138.2000,144.9200 z " style="fill: #2e3436; fill-opacity: 0.20; stroke: none;" id="ezcGraphPolygon_68"/><path d=" M 156.4071,127.4200 L 155.9479,127.4200 L 138.9479,144.4200 L 139.4071,144.4200 L 156.4071,127.4200 z " style="fill: none; stroke: #2e3436; stroke-width: 1; stroke-opacity: 1.00; stroke-linecap: round; stroke-linejoin: round;" id="ezcGraphPolygon_69"/><path d=" M 461.8000,122.0600 L 156.2000,122.0600" style="fill: none; stroke: #888888; stroke-width: 1; stroke-opacity: 1.00; stroke-linecap: round; stroke-linejoin: round;" id="ezcGraphLine_70"/><path d=" M 138.2000,140.6000 L 156.2000,122.6000 L 159.0650,122.6000 L 141.0650,140.6000 L 138.2000,140.6000 z " style="fill: #2e3436; fill-opacity: 0.20; stroke: none;" id="ezcGraphPolygon_71"/><path d=" M 156.4071,123.1000 L 157.8579,123.1000 L 140.8579,140.1000 L 139.4071,140.1000 L 156.4071,123.1000 z " style="fill: none; stroke: #2e3436; stroke-width: 1; stroke-opacity: 1.00; stroke-linecap: round; stroke-linejoin: round;" id="ezcGraphPolygon_72"/><path d=" M 461.8000,118.8200 L 156.2000,118.8200" style="fill: none; stroke: #000000; stroke-width: 1; stroke-opacity: 0.00; stroke-linecap: round; stroke-linejoin: round;" id="ezcGraphLine_74"/><path d=" M 138.2000,136.2800 L 156.2000,118.2800 L 157.1550,118.2800 L 139.1550,136.2800 L 138.2000,136.2800 z " style="fill: #2e3436; fill-opacity: 0.20; stroke: none;" id="ezcGraphPolygon_75"/><path d=" M 156.4071,118.7800 L 155.9479,118.7800 L 138.9479,135.7800 L 139.4071,135.7800 L 156.4071,118.7800 z " style="fill: none; stroke: #2e3436; stroke-width: 1; stroke-opacity: 1.00; stroke-linecap: round; stroke-linejoin: round;" id="ezcGraphPolygon_76"/><path d=" M 461.8000,113.9600 L 156.2000,113.9600" style="fill: none; stroke: #000000; stroke-width: 1; stroke-opacity: 0.00; stroke-linecap: round; stroke-linejoin: round;" id="ezcGraphLine_77"/><path d=" M 138.2000,131.9600 L 156.2000,113.9600 L 157.1550,113.9600 L 139.1550,131.9600 L 138.2000,131.9600 z " style="fill: #2e3436; fill-opacity: 0.20; stroke: none;" id="ezcGraphPolygon_78"/><path d=" M 156.4071,114.4600 L 155.9479,114.4600 L 138.9479,131.4600 L 139.4071,131.4600 L 156.4071,114.4600 z " style="fill: none; stroke: #2e3436; stroke-width: 1; stroke-opacity: 1.00; stroke-linecap: round; stroke-linejoin: round;" id="ezcGraphPolygon_79"/><path d=" M 461.8000,109.1000 L 156.2000,109.1000" style="fill: none; stroke: #000000; stroke-width: 1; stroke-opacity: 0.00; stroke-linecap: round; stroke-linejoin: round;" id="ezcGraphLine_80"/><path d=" M 138.2000,127.6400 L 156.2000,109.6400 L 157.1550,109.6400 L 139.1550,127.6400 L 138.2000,127.6400 z " style="fill: #2e3436; fill-opacity: 0.20; stroke: none;" id="ezcGraphPolygon_81"/><path d=" M 156.4071,110.1400 L 155.9479,110.1400 L 138.9479,127.1400 L 139.4071,127.1400 L 156.4071,110.1400 z " style="fill: none; stroke: #2e3436; stroke-width: 1; stroke-opacity: 1.00; stroke-linecap: round; stroke-linejoin: round;" id="ezcGraphPolygon_82"/><path d=" M 461.8000,105.8600 L 156.2000,105.8600" style="fill: none; stroke: #000000; stroke-width: 1; stroke-opacity: 0.00; stroke-linecap: round; stroke-linejoin: round;" id="ezcGraphLine_83"/><path d=" M 138.2000,123.3200 L 156.2000,105.3200 L 157.1550,105.3200 L 139.1550,123.3200 L 138.2000,123.3200 z " style="fill: #2e3436; fill-opacity: 0.20; stroke: none;" id="ezcGraphPolygon_84"/><path d=" M 156.4071,105.8200 L 155.9479,105.8200 L 138.9479,122.8200 L 139.4071,122.8200 L 156.4071,105.8200 z " style="fill: none; stroke: #2e3436; stroke-width: 1; stroke-opacity: 1.00; stroke-linecap: round; stroke-linejoin: round;" id="ezcGraphPolygon_85"/><path d=" M 461.8000,101.0000 L 156.2000,101.0000" style="fill: none; stroke: #888888; stroke-width: 1; stroke-opacity: 1.00; stroke-linecap: round; stroke-linejoin: round;" id="ezcGraphLine_86"/><path d=" M 138.2000,119.0000 L 156.2000,101.0000 L 159.0650,101.0000 L 141.0650,119.0000 L 138.2000,119.0000 z " style="fill: #2e3436; fill-opacity: 0.20; stroke: none;" id="ezcGraphPolygon_87"/><path d=" M 156.4071,101.5000 L 157.8579,101.5000 L 140.8579,118.5000 L 139.4071,118.5000 L 156.4071,101.5000 z " style="fill: none; stroke: #2e3436; stroke-width: 1; stroke-opacity: 1.00; stroke-linecap: round; stroke-linejoin: round;" id="ezcGraphPolygon_88"/><path d=" M 461.8000,96.1400 L 156.2000,96.1400" style="fill: none; stroke: #000000; stroke-width: 1; stroke-opacity: 0.00; stroke-linecap: round; stroke-linejoin: round;" id="ezcGraphLine_90"/><path d=" M 138.2000,114.6800 L 156.2000,96.6800 L 157.1550,96.6800 L 139.1550,114.6800 L 138.2000,114.6800 z " style="fill: #2e3436; fill-opacity: 0.20; stroke: none;" id="ezcGraphPolygon_91"/><path d=" M 156.4071,97.1800 L 155.9479,97.1800 L 138.9479,114.1800 L 139.4071,114.1800 L 156.4071,97.1800 z " style="fill: none; stroke: #2e3436; stroke-width: 1; stroke-opacity: 1.00; stroke-linecap: round; stroke-linejoin: round;" id="ezcGraphPolygon_92"/><path d=" M 461.8000,92.9000 L 156.2000,92.9000" style="fill: none; stroke: #000000; stroke-width: 1; stroke-opacity: 0.00; stroke-linecap: round; stroke-linejoin: round;" id="ezcGraphLine_93"/><path d=" M 138.2000,110.3600 L 156.2000,92.3600 L 157.1550,92.3600 L 139.1550,110.3600 L 138.2000,110.3600 z " style="fill: #2e3436; fill-opacity: 0.20; stroke: none;" id="ezcGraphPolygon_94"/><path d=" M 156.4071,92.8600 L 155.9479,92.8600 L 138.9479,109.8600 L 139.4071,109.8600 L 156.4071,92.8600 z " style="fill: none; stroke: #2e3436; stroke-width: 1; stroke-opacity: 1.00; stroke-linecap: round; stroke-linejoin: round;" id="ezcGraphPolygon_95"/><path d=" M 461.8000,88.0400 L 156.2000,88.0400" style="fill: none; stroke: #000000; stroke-width: 1; stroke-opacity: 0.00; stroke-linecap: round; stroke-linejoin: round;" id="ezcGraphLine_96"/><path d=" M 138.2000,106.0400 L 156.2000,88.0400 L 157.1550,88.0400 L 139.1550,106.0400 L 138.2000,106.0400 z " style="fill: #2e3436; fill-opacity: 0.20; stroke: none;" id="ezcGraphPolygon_97"/><path d=" M 156.4071,88.5400 L 155.9479,88.5400 L 138.9479,105.5400 L 139.4071,105.5400 L 156.4071,88.5400 z " style="fill: none; stroke: #2e3436; stroke-width: 1; stroke-opacity: 1.00; stroke-linecap: round; stroke-linejoin: round;" id="ezcGraphPolygon_98"/><path d=" M 461.8000,83.1800 L 156.2000,83.1800" style="fill: none; stroke: #000000; stroke-width: 1; stroke-opacity: 0.00; stroke-linecap: round; stroke-linejoin: round;" id="ezcGraphLine_99"/><path d=" M 138.2000,101.7200 L 156.2000,83.7200 L 157.1550,83.7200 L 139.1550,101.7200 L 138.2000,101.7200 z " style="fill: #2e3436; fill-opacity: 0.20; stroke: none;" id="ezcGraphPolygon_100"/><path d=" M 156.4071,84.2200 L 155.9479,84.2200 L 138.9479,101.2200 L 139.4071,101.2200 L 156.4071,84.2200 z " style="fill: none; stroke: #2e3436; stroke-width: 1; stroke-opacity: 1.00; stroke-linecap: round; stroke-linejoin: round;" id="ezcGraphPolygon_101"/><path d=" M 461.8000,79.9400 L 156.2000,79.9400" style="fill: none; stroke: #888888; stroke-width: 1; stroke-opacity: 1.00; stroke-linecap: round; stroke-linejoin: round;" id="ezcGraphLine_102"/><path d=" M 138.2000,97.4000 L 156.2000,79.4000 L 159.0650,79.4000 L 141.0650,97.4000 L 138.2000,97.4000 z " style="fill: #2e3436; fill-opacity: 0.20; stroke: none;" id="ezcGraphPolygon_103"/><path d=" M 156.4071,79.9000 L 157.8579,79.9000 L 140.8579,96.9000 L 139.4071,96.9000 L 156.4071,79.9000 z " style="fill: none; stroke: #2e3436; stroke-width: 1; stroke-opacity: 1.00; stroke-linecap: round; stroke-linejoin: round;" id="ezcGraphPolygon_104"/><path d=" M 461.8000,75.0800 L 156.2000,75.0800" style="fill: none; stroke: #000000; stroke-width: 1; stroke-opacity: 0.00; stroke-linecap: round; stroke-linejoin: round;" id="ezcGraphLine_106"/><path d=" M 138.2000,93.0800 L 156.2000,75.0800 L 157.1550,75.0800 L 139.1550,93.0800 L 138.2000,93.0800 z " style="fill: #2e3436; fill-opacity: 0.20; stroke: none;" id="ezcGraphPolygon_107"/><path d=" M 156.4071,75.5800 L 155.9479,75.5800 L 138.9479,92.5800 L 139.4071,92.5800 L 156.4071,75.5800 z " style="fill: none; stroke: #2e3436; stroke-width: 1; stroke-opacity: 1.00; stroke-linecap: round; stroke-linejoin: round;" id="ezcGraphPolygon_108"/><path d=" M 461.8000,70.2200 L 156.2000,70.2200" style="fill: none; stroke: #000000; stroke-width: 1; stroke-opacity: 0.00; stroke-linecap: round; stroke-linejoin: round;" id="ezcGraphLine_109"/><path d=" M 138.2000,88.7600 L 156.2000,70.7600 L 157.1550,70.7600 L 139.1550,88.7600 L 138.2000,88.7600 z " style="fill: #2e3436; fill-opacity: 0.20; stroke: none;" id="ezcGraphPolygon_110"/><path d=" M 156.4071,71.2600 L 155.9479,71.2600 L 138.9479,88.2600 L 139.4071,88.2600 L 156.4071,71.2600 z " style="fill: none; stroke: #2e3436; stroke-width: 1; stroke-opacity: 1.00; stroke-linecap: round; stroke-linejoin: round;" id="ezcGraphPolygon_111"/><path d=" M 461.8000,66.9800 L 156.2000,66.9800" style="fill: none; stroke: #000000; stroke-width: 1; stroke-opacity: 0.00; stroke-linecap: round; stroke-linejoin: round;" id="ezcGraphLine_112"/><path d=" M 138.2000,84.4400 L 156.2000,66.4400 L 157.1550,66.4400 L 139.1550,84.4400 L 138.2000,84.4400 z " style="fill: #2e3436; fill-opacity: 0.20; stroke: none;" id="ezcGraphPolygon_113"/><path d=" M 156.4071,66.9400 L 155.9479,66.9400 L 138.9479,83.9400 L 139.4071,83.9400 L 156.4071,66.9400 z " style="fill: none; stroke: #2e3436; stroke-width: 1; stroke-opacity: 1.00; stroke-linecap: round; stroke-linejoin: round;" id="ezcGraphPolygon_114"/><path d=" M 461.8000,62.1200 L 156.2000,62.1200" style="fill: none; stroke: #000000; stroke-width: 1; stroke-opacity: 0.00; stroke-linecap: round; stroke-linejoin: round;" id="ezcGraphLine_115"/><path d=" M 138.2000,80.1200 L 156.2000,62.1200 L 157.1550,62.1200 L 139.1550,80.1200 L 138.2000,80.1200 z " style="fill: #2e3436; fill-opacity: 0.20; stroke: none;" id="ezcGraphPolygon_116"/><path d=" M 156.4071,62.6200 L 155.9479,62.6200 L 138.9479,79.6200 L 139.4071,79.6200 L 156.4071,62.6200 z " style="fill: none; stroke: #2e3436; stroke-width: 1; stroke-opacity: 1.00; stroke-linecap: round; stroke-linejoin: round;" id="ezcGraphPolygon_117"/><path d=" M 461.8000,57.2600 L 156.2000,57.2600" style="fill: none; stroke: #888888; stroke-width: 1; stroke-opacity: 1.00; stroke-linecap: round; stroke-linejoin: round;" id="ezcGraphLine_118"/><path d=" M 138.2000,75.8000 L 156.2000,57.8000 L 159.0650,57.8000 L 141.0650,75.8000 L 138.2000,75.8000 z " style="fill: #2e3436; fill-opacity: 0.20; stroke: none;" id="ezcGraphPolygon_119"/><path d=" M 156.4071,58.3000 L 157.8579,58.3000 L 140.8579,75.3000 L 139.4071,75.3000 L 156.4071,58.3000 z " style="fill: none; stroke: #2e3436; stroke-width: 1; stroke-opacity: 1.00; stroke-linecap: round; stroke-linejoin: round;" id="ezcGraphPolygon_120"/><path d=" M 461.8000,54.0200 L 156.2000,54.0200" style="fill: none; stroke: #000000; stroke-width: 1; stroke-opacity: 0.00; stroke-linecap: round; stroke-linejoin: round;" id="ezcGraphLine_122"/><path d=" M 138.2000,71.4800 L 156.2000,53.4800 L 157.1550,53.4800 L 139.1550,71.4800 L 138.2000,71.4800 z " style="fill: #2e3436; fill-opacity: 0.20; stroke: none;" id="ezcGraphPolygon_123"/><path d=" M 156.4071,53.9800 L 155.9479,53.9800 L 138.9479,70.9800 L 139.4071,70.9800 L 156.4071,53.9800 z " style="fill: none; stroke: #2e3436; stroke-width: 1; stroke-opacity: 1.00; stroke-linecap: round; stroke-linejoin: round;" id="ezcGraphPolygon_124"/><path d=" M 461.8000,49.1600 L 156.2000,49.1600" style="fill: none; stroke: #000000; stroke-width: 1; stroke-opacity: 0.00; stroke-linecap: round; stroke-linejoin: round;" id="ezcGraphLine_125"/><path d=" M 138.2000,67.1600 L 156.2000,49.1600 L 157.1550,49.1600 L 139.1550,67.1600 L 138.2000,67.1600 z " style="fill: #2e3436; fill-opacity: 0.20; stroke: none;" id="ezcGraphPolygon_126"/><path d=" M 156.4071,49.6600 L 155.9479,49.6600 L 138.9479,66.6600 L 139.4071,66.6600 L 156.4071,49.6600 z " style="fill: none; stroke: #2e3436; stroke-width: 1; stroke-opacity: 1.00; stroke-linecap: round; stroke-linejoin: round;" id="ezcGraphPolygon_127"/><path d=" M 461.8000,44.3000 L 156.2000,44.3000" style="fill: none; stroke: #000000; stroke-width: 1; stroke-opacity: 0.00; stroke-linecap: round; stroke-linejoin: round;" id="ezcGraphLine_128"/><path d=" M 138.2000,62.8400 L 156.2000,44.8400 L 157.1550,44.8400 L 139.1550,62.8400 L 138.2000,62.8400 z " style="fill: #2e3436; fill-opacity: 0.20; stroke: none;" id="ezcGraphPolygon_129"/><path d=" M 156.4071,45.3400 L 155.9479,45.3400 L 138.9479,62.3400 L 139.4071,62.3400 L 156.4071,45.3400 z " style="fill: none; stroke: #2e3436; stroke-width: 1; stroke-opacity: 1.00; stroke-linecap: round; stroke-linejoin: round;" id="ezcGraphPolygon_130"/><path d=" M 461.8000,41.0600 L 156.2000,41.0600" style="fill: none; stroke: #000000; stroke-width: 1; stroke-opacity: 0.00; stroke-linecap: round; stroke-linejoin: round;" id="ezcGraphLine_131"/><path d=" M 138.2000,58.5200 L 156.2000,40.5200 L 157.1550,40.5200 L 139.1550,58.5200 L 138.2000,58.5200 z " style="fill: #2e3436; fill-opacity: 0.20; stroke: none;" id="ezcGraphPolygon_132"/><path d=" M 156.4071,41.0200 L 155.9479,41.0200 L 138.9479,58.0200 L 139.4071,58.0200 L 156.4071,41.0200 z " style="fill: none; stroke: #2e3436; stroke-width: 1; stroke-opacity: 1.00; stroke-linecap: round; stroke-linejoin: round;" id="ezcGraphPolygon_133"/><path d=" M 461.8000,36.2000 L 156.2000,36.2000" style="fill: none; stroke: #888888; stroke-width: 1; stroke-opacity: 1.00; stroke-linecap: round; stroke-linejoin: round;" id="ezcGraphLine_134"/><path d=" M 138.2000,54.2000 L 156.2000,36.2000 L 159.0650,36.2000 L 141.0650,54.2000 L 138.2000,54.2000 z " style="fill: #2e3436; fill-opacity: 0.20; stroke: none;" id="ezcGraphPolygon_135"/><path d=" M 156.4071,36.7000 L 157.8579,36.7000 L 140.8579,53.7000 L 139.4071,53.7000 L 156.4071,36.7000 z " style="fill: none; stroke: #2e3436; stroke-width: 1; stroke-opacity: 1.00; stroke-linecap: round; stroke-linejoin: round;" id="ezcGraphPolygon_136"/><path d="M 150.51,174.80 A 10.68,5.34 0 0,0 171.87,174.80 L 171.87,74.23 A 10.68,5.341667 0 0,1 150.51,74.23 z" style="fill: #5489f2; fill-opacity: 1.00; stroke: none;" id="ezcGraphCircularArc_138"/><path d="M 150.51,174.80 A 10.68,5.34 0 0,0 171.87,174.80 L 171.87,74.23 A 10.68,5.341667 0 0,1 150.51,74.23 z" style="fill: url(#LinearGradient_150_74_171_74_ffffffbf_0000007f); stroke: none;" id="ezcGraphCircularArc_139"/><ellipse cx="161.1888" cy="74.2304" rx="10.6833" ry="5.3417" style="fill: #5489f2; fill-opacity: 1.00; stroke: none;" id="ezcGraphCircle_140"/><path d="M 173.46,174.80 A 10.68,5.34 0 0,0 194.83,174.80 L 194.83,171.52 A 10.68,5.341667 0 0,1 173.46,171.52 z" style="fill: #699bff; fill-opacity: 1.00; stroke: none;" id="ezcGraphCircularArc_141"/><path d="M 173.46,174.80 A 10.68,5.34 0 0,0 194.83,174.80 L 194.83,171.52 A 10.68,5.341667 0 0,1 173.46,171.52 z" style="fill: url(#LinearGradient_173_171_194_171_ffffffbf_0000007f); stroke: none;" id="ezcGraphCircularArc_142"/><ellipse cx="184.1446" cy="171.5168" rx="10.6833" ry="5.3417" style="fill: #699bff; fill-opacity: 1.00; stroke: none;" id="ezcGraphCircle_143"/><path d="M 201.44,174.80 A 10.68,5.34 0 0,0 222.81,174.80 L 222.81,91.42 A 10.68,5.341667 0 0,1 201.44,91.42 z" style="fill: #5489f2; fill-opacity: 1.00; stroke: none;" id="ezcGraphCircularArc_144"/><path d="M 201.44,174.80 A 10.68,5.34 0 0,0 222.81,174.80 L 222.81,91.42 A 10.68,5.341667 0 0,1 201.44,91.42 z" style="fill: url(#LinearGradient_201_91_222_91_ffffffbf_0000007f); stroke: none;" id="ezcGraphCircularArc_145"/><ellipse cx="212.1221" cy="91.4240" rx="10.6833" ry="5.3417" style="fill: #5489f2; fill-opacity: 1.00; stroke: none;" id="ezcGraphCircle_146"/><path d="M 224.39,174.80 A 10.68,5.34 0 0,0 245.76,174.80 L 245.76,172.04 A 10.68,5.341667 0 0,1 224.39,172.04 z" style="fill: #699bff; fill-opacity: 1.00; stroke: none;" id="ezcGraphCircularArc_147"/><path d="M 224.39,174.80 A 10.68,5.34 0 0,0 245.76,174.80 L 245.76,172.04 A 10.68,5.341667 0 0,1 224.39,172.04 z" style="fill: url(#LinearGradient_224_172_245_172_ffffffbf_0000007f); stroke: none;" id="ezcGraphCircularArc_148"/><ellipse cx="235.0779" cy="172.0352" rx="10.6833" ry="5.3417" style="fill: #699bff; fill-opacity: 1.00; stroke: none;" id="ezcGraphCircle_149"/><path d="M 252.37,174.80 A 10.68,5.34 0 0,0 273.74,174.80 L 273.74,87.19 A 10.68,5.341667 0 0,1 252.37,87.19 z" style="fill: #5489f2; fill-opacity: 1.00; stroke: none;" id="ezcGraphCircularArc_150"/><path d="M 252.37,174.80 A 10.68,5.34 0 0,0 273.74,174.80 L 273.74,87.19 A 10.68,5.341667 0 0,1 252.37,87.19 z" style="fill: url(#LinearGradient_252_87_273_87_ffffffbf_0000007f); stroke: none;" id="ezcGraphCircularArc_151"/><ellipse cx="263.0554" cy="87.1904" rx="10.6833" ry="5.3417" style="fill: #5489f2; fill-opacity: 1.00; stroke: none;" id="ezcGraphCircle_152"/><path d="M 275.33,174.80 A 10.68,5.34 0 0,0 296.69,174.80 L 296.69,171.95 A 10.68,5.341667 0 0,1 275.33,171.95 z" style="fill: #699bff; fill-opacity: 1.00; stroke: none;" id="ezcGraphCircularArc_153"/><path d="M 275.33,174.80 A 10.68,5.34 0 0,0 296.69,174.80 L 296.69,171.95 A 10.68,5.341667 0 0,1 275.33,171.95 z" style="fill: url(#LinearGradient_275_171_296_171_ffffffbf_0000007f); stroke: none;" id="ezcGraphCircularArc_154"/><ellipse cx="286.0112" cy="171.9488" rx="10.6833" ry="5.3417" style="fill: #699bff; fill-opacity: 1.00; stroke: none;" id="ezcGraphCircle_155"/><path d="M 303.31,174.80 A 10.68,5.34 0 0,0 324.67,174.80 L 324.67,65.16 A 10.68,5.341667 0 0,1 303.31,65.16 z" style="fill: #5489f2; fill-opacity: 1.00; stroke: none;" id="ezcGraphCircularArc_156"/><path d="M 303.31,174.80 A 10.68,5.34 0 0,0 324.67,174.80 L 324.67,65.16 A 10.68,5.341667 0 0,1 303.31,65.16 z" style="fill: url(#LinearGradient_303_65_324_65_ffffffbf_0000007f); stroke: none;" id="ezcGraphCircularArc_157"/><ellipse cx="313.9888" cy="65.1584" rx="10.6833" ry="5.3417" style="fill: #5489f2; fill-opacity: 1.00; stroke: none;" id="ezcGraphCircle_158"/><path d="M 326.26,174.80 A 10.68,5.34 0 0,0 347.63,174.80 L 347.63,171.26 A 10.68,5.341667 0 0,1 326.26,171.26 z" style="fill: #699bff; fill-opacity: 1.00; stroke: none;" id="ezcGraphCircularArc_159"/><path d="M 326.26,174.80 A 10.68,5.34 0 0,0 347.63,174.80 L 347.63,171.26 A 10.68,5.341667 0 0,1 326.26,171.26 z" style="fill: url(#LinearGradient_326_171_347_171_ffffffbf_0000007f); stroke: none;" id="ezcGraphCircularArc_160"/><ellipse cx="336.9446" cy="171.2576" rx="10.6833" ry="5.3417" style="fill: #699bff; fill-opacity: 1.00; stroke: none;" id="ezcGraphCircle_161"/><path d="M 354.24,174.80 A 10.68,5.34 0 0,0 375.61,174.80 L 375.61,65.16 A 10.68,5.341667 0 0,1 354.24,65.16 z" style="fill: #5489f2; fill-opacity: 1.00; stroke: none;" id="ezcGraphCircularArc_162"/><path d="M 354.24,174.80 A 10.68,5.34 0 0,0 375.61,174.80 L 375.61,65.16 A 10.68,5.341667 0 0,1 354.24,65.16 z" style="fill: url(#LinearGradient_354_65_375_65_ffffffbf_0000007f); stroke: none;" id="ezcGraphCircularArc_163"/><ellipse cx="364.9221" cy="65.1584" rx="10.6833" ry="5.3417" style="fill: #5489f2; fill-opacity: 1.00; stroke: none;" id="ezcGraphCircle_164"/><path d="M 377.19,174.80 A 10.68,5.34 0 0,0 398.56,174.80 L 398.56,171.86 A 10.68,5.341667 0 0,1 377.19,171.86 z" style="fill: #699bff; fill-opacity: 1.00; stroke: none;" id="ezcGraphCircularArc_165"/><path d="M 377.19,174.80 A 10.68,5.34 0 0,0 398.56,174.80 L 398.56,171.86 A 10.68,5.341667 0 0,1 377.19,171.86 z" style="fill: url(#LinearGradient_377_171_398_171_ffffffbf_0000007f); stroke: none;" id="ezcGraphCircularArc_166"/><ellipse cx="387.8779" cy="171.8624" rx="10.6833" ry="5.3417" style="fill: #699bff; fill-opacity: 1.00; stroke: none;" id="ezcGraphCircle_167"/><path d="M 405.17,174.80 A 10.68,5.34 0 0,0 426.54,174.80 L 426.54,108.19 A 10.68,5.341667 0 0,1 405.17,108.19 z" style="fill: #5489f2; fill-opacity: 1.00; stroke: none;" id="ezcGraphCircularArc_168"/><path d="M 405.17,174.80 A 10.68,5.34 0 0,0 426.54,174.80 L 426.54,108.19 A 10.68,5.341667 0 0,1 405.17,108.19 z" style="fill: url(#LinearGradient_405_108_426_108_ffffffbf_0000007f); stroke: none;" id="ezcGraphCircularArc_169"/><ellipse cx="415.8554" cy="108.1856" rx="10.6833" ry="5.3417" style="fill: #5489f2; fill-opacity: 1.00; stroke: none;" id="ezcGraphCircle_170"/><path d="M 428.13,174.80 A 10.68,5.34 0 0,0 449.49,174.80 L 449.49,172.64 A 10.68,5.341667 0 0,1 428.13,172.64 z" style="fill: #699bff; fill-opacity: 1.00; stroke: none;" id="ezcGraphCircularArc_171"/><path d="M 428.13,174.80 A 10.68,5.34 0 0,0 449.49,174.80 L 449.49,172.64 A 10.68,5.341667 0 0,1 428.13,172.64 z" style="fill: url(#LinearGradient_428_172_449_172_ffffffbf_0000007f); stroke: none;" id="ezcGraphCircularArc_172"/><ellipse cx="438.8112" cy="172.6400" rx="10.6833" ry="5.3417" style="fill: #699bff; fill-opacity: 1.00; stroke: none;" id="ezcGraphCircle_173"/><path d=" M 500.0000,165.8000 L 482.0000,183.8000" style="fill: none; stroke: #2e3436; stroke-width: 1; stroke-opacity: 1.00; stroke-linecap: round; stroke-linejoin: round;" id="ezcGraphLine_174"/><path d=" M 482.0000,183.8000 L 100.0000,183.8000" style="fill: none; stroke: #2e3436; stroke-width: 1; stroke-opacity: 1.00; stroke-linecap: round; stroke-linejoin: round;" id="ezcGraphLine_175"/><path d=" M 100.0000,183.8000 L 118.0000,165.8000" style="fill: none; stroke: #2e3436; stroke-width: 1; stroke-opacity: 1.00; stroke-linecap: round; stroke-linejoin: round;" id="ezcGraphLine_176"/><path d=" M 156.2000,20.0000 L 138.2000,38.0000" style="fill: none; stroke: #2e3436; stroke-width: 1; stroke-opacity: 1.00; stroke-linecap: round; stroke-linejoin: round;" id="ezcGraphLine_177"/><path d=" M 138.2000,38.0000 L 138.2000,200.0000" style="fill: none; stroke: #2e3436; stroke-width: 1; stroke-opacity: 1.00; stroke-linecap: round; stroke-linejoin: round;" id="ezcGraphLine_178"/><path d=" M 138.2000,200.0000 L 156.2000,182.0000" style="fill: none; stroke: #2e3436; stroke-width: 1; stroke-opacity: 1.00; stroke-linecap: round; stroke-linejoin: round;" id="ezcGraphLine_179"/><g id="ezcGraphTextBox_3"><path d=" M 125.4800,20.0000 L 125.4800,0.5000 L 375.0200,0.5000 L 375.0200,20.0000 L 125.4800,20.0000 z " style="fill: #ffffff; fill-opacity: 0.00; stroke: none;" id="ezcGraphPolygon_180"/><text id="ezcGraphTextBox_3_text" x="125.9800" text-length="248.0400px" y="16.3000" style="font-size: 18px; font-family: 'sans-serif'; fill: #2e3436; fill-opacity: 1.00; stroke: none;">Forum posts in last months</text></g><g id="ezcGraphTextBox_7"><path d=" M 16.5000,37.0000 L 16.5000,21.5000 L 55.1000,21.5000 L 55.1000,37.0000 L 16.5000,37.0000 z " style="fill: #ffffff; fill-opacity: 0.00; stroke: none;" id="ezcGraphPolygon_181"/><text id="ezcGraphTextBox_7_text" x="17.0000" text-length="37.1000px" y="33.9000" style="font-size: 14px; font-family: 'sans-serif'; fill: #2e3436; fill-opacity: 1.00; stroke: none;">Posts</text></g><g id="ezcGraphTextBox_10"><path d=" M 16.5000,55.0000 L 16.5000,39.5000 L 69.9400,39.5000 L 69.9400,55.0000 L 16.5000,55.0000 z " style="fill: #ffffff; fill-opacity: 0.00; stroke: none;" id="ezcGraphPolygon_182"/><text id="ezcGraphTextBox_10_text" x="17.0000" text-length="51.9400px" y="51.9000" style="font-size: 14px; font-family: 'sans-serif'; fill: #2e3436; fill-opacity: 1.00; stroke: none;">per day</text></g><g id="ezcGraphTextBox_17"><path d=" M 147.9027,193.8000 L 147.9027,185.1000 L 179.9307,185.1000 L 179.9307,193.8000 L 147.9027,193.8000 z " style="fill: #ffffff; fill-opacity: 0.00; stroke: none;" id="ezcGraphPolygon_183"/><text id="ezcGraphTextBox_17_text" x="148.4027" text-length="30.5280px" y="191.7200" style="font-size: 7px; font-family: 'sans-serif'; fill: #2e3436; fill-opacity: 1.00; stroke: none;">May 2006</text></g><g id="ezcGraphTextBox_21"><path d=" M 198.8360,193.8000 L 198.8360,185.1000 L 230.8640,185.1000 L 230.8640,193.8000 L 198.8360,193.8000 z " style="fill: #ffffff; fill-opacity: 0.00; stroke: none;" id="ezcGraphPolygon_184"/><text id="ezcGraphTextBox_21_text" x="199.3360" text-length="30.5280px" y="191.7200" style="font-size: 7px; font-family: 'sans-serif'; fill: #2e3436; fill-opacity: 1.00; stroke: none;">Jun 2006</text></g><g id="ezcGraphTextBox_25"><path d=" M 249.7693,193.8000 L 249.7693,185.1000 L 281.7973,185.1000 L 281.7973,193.8000 L 249.7693,193.8000 z " style="fill: #ffffff; fill-opacity: 0.00; stroke: none;" id="ezcGraphPolygon_185"/><text id="ezcGraphTextBox_25_text" x="250.2693" text-length="30.5280px" y="191.7200" style="font-size: 7px; font-family: 'sans-serif'; fill: #2e3436; fill-opacity: 1.00; stroke: none;">Jul 2006</text></g><g id="ezcGraphTextBox_29"><path d=" M 300.7027,193.8000 L 300.7027,185.1000 L 332.7307,185.1000 L 332.7307,193.8000 L 300.7027,193.8000 z " style="fill: #ffffff; fill-opacity: 0.00; stroke: none;" id="ezcGraphPolygon_186"/><text id="ezcGraphTextBox_29_text" x="301.2027" text-length="30.5280px" y="191.7200" style="font-size: 7px; font-family: 'sans-serif'; fill: #2e3436; fill-opacity: 1.00; stroke: none;">Aug 2006</text></g><g id="ezcGraphTextBox_33"><path d=" M 351.6360,193.8000 L 351.6360,185.1000 L 383.6640,185.1000 L 383.6640,193.8000 L 351.6360,193.8000 z " style="fill: #ffffff; fill-opacity: 0.00; stroke: none;" id="ezcGraphPolygon_187"/><text id="ezcGraphTextBox_33_text" x="352.1360" text-length="30.5280px" y="191.7200" style="font-size: 7px; font-family: 'sans-serif'; fill: #2e3436; fill-opacity: 1.00; stroke: none;">Sep 2006</text></g><g id="ezcGraphTextBox_37"><path d=" M 402.5693,193.8000 L 402.5693,185.1000 L 434.5973,185.1000 L 434.5973,193.8000 L 402.5693,193.8000 z " style="fill: #ffffff; fill-opacity: 0.00; stroke: none;" id="ezcGraphPolygon_188"/><text id="ezcGraphTextBox_37_text" x="403.0693" text-length="30.5280px" y="191.7200" style="font-size: 7px; font-family: 'sans-serif'; fill: #2e3436; fill-opacity: 1.00; stroke: none;">Oct 2006</text></g><g id="ezcGraphTextBox_41"><path d=" M 131.3260,183.0000 L 131.3260,174.3000 L 137.2900,174.3000 L 137.2900,183.0000 L 131.3260,183.0000 z " style="fill: #ffffff; fill-opacity: 0.00; stroke: none;" id="ezcGraphPolygon_189"/><text id="ezcGraphTextBox_41_text" x="131.8260" text-length="4.4640px" y="180.9200" style="font-size: 7px; font-family: 'sans-serif'; fill: #2e3436; fill-opacity: 1.00; stroke: none;">0</text></g><g id="ezcGraphTextBox_57"><path d=" M 122.3980,161.4000 L 122.3980,152.7000 L 137.2900,152.7000 L 137.2900,161.4000 L 122.3980,161.4000 z " style="fill: #ffffff; fill-opacity: 0.00; stroke: none;" id="ezcGraphPolygon_190"/><text id="ezcGraphTextBox_57_text" x="122.8980" text-length="13.3920px" y="159.3200" style="font-size: 7px; font-family: 'sans-serif'; fill: #2e3436; fill-opacity: 1.00; stroke: none;">250</text></g><g id="ezcGraphTextBox_73"><path d=" M 122.3980,139.8000 L 122.3980,131.1000 L 137.2900,131.1000 L 137.2900,139.8000 L 122.3980,139.8000 z " style="fill: #ffffff; fill-opacity: 0.00; stroke: none;" id="ezcGraphPolygon_191"/><text id="ezcGraphTextBox_73_text" x="122.8980" text-length="13.3920px" y="137.7200" style="font-size: 7px; font-family: 'sans-serif'; fill: #2e3436; fill-opacity: 1.00; stroke: none;">500</text></g><g id="ezcGraphTextBox_89"><path d=" M 122.3980,118.2000 L 122.3980,109.5000 L 137.2900,109.5000 L 137.2900,118.2000 L 122.3980,118.2000 z " style="fill: #ffffff; fill-opacity: 0.00; stroke: none;" id="ezcGraphPolygon_192"/><text id="ezcGraphTextBox_89_text" x="122.8980" text-length="13.3920px" y="116.1200" style="font-size: 7px; font-family: 'sans-serif'; fill: #2e3436; fill-opacity: 1.00; stroke: none;">750</text></g><g id="ezcGraphTextBox_105"><path d=" M 117.9340,96.6000 L 117.9340,87.9000 L 137.2900,87.9000 L 137.2900,96.6000 L 117.9340,96.6000 z " style="fill: #ffffff; fill-opacity: 0.00; stroke: none;" id="ezcGraphPolygon_193"/><text id="ezcGraphTextBox_105_text" x="118.4340" text-length="17.8560px" y="94.5200" style="font-size: 7px; font-family: 'sans-serif'; fill: #2e3436; fill-opacity: 1.00; stroke: none;">1000</text></g><g id="ezcGraphTextBox_121"><path d=" M 117.9340,75.0000 L 117.9340,66.3000 L 137.2900,66.3000 L 137.2900,75.0000 L 117.9340,75.0000 z " style="fill: #ffffff; fill-opacity: 0.00; stroke: none;" id="ezcGraphPolygon_194"/><text id="ezcGraphTextBox_121_text" x="118.4340" text-length="17.8560px" y="72.9200" style="font-size: 7px; font-family: 'sans-serif'; fill: #2e3436; fill-opacity: 1.00; stroke: none;">1250</text></g><g id="ezcGraphTextBox_137"><path d=" M 117.9340,64.2000 L 117.9340,55.5000 L 137.2900,55.5000 L 137.2900,64.2000 L 117.9340,64.2000 z " style="fill: #ffffff; fill-opacity: 0.00; stroke: none;" id="ezcGraphPolygon_195"/><text id="ezcGraphTextBox_137_text" x="118.4340" text-length="17.8560px" y="62.1200" style="font-size: 7px; font-family: 'sans-serif'; fill: #2e3436; fill-opacity: 1.00; stroke: none;">1500</text></g></g></svg>
